<?xml version="1.0" encoding="UTF-8"?>
<svg xmlns="http://www.w3.org/2000/svg" xmlns:xlink="http://www.w3.org/1999/xlink" width="48pt" height="48pt" viewBox="0 0 48 48" version="1.1">
<g id="surface1">
<path style=" stroke:none;fill-rule:nonzero;fill:rgb(0%,0%,0%);fill-opacity:1;" d="M 22 18 L 26 18 L 26 14 L 22 14 M 24 40 C 15.179688 40 8 32.820312 8 24 C 8 15.179688 15.179688 8 24 8 C 32.820312 8 40 15.179688 40 24 C 40 32.820312 32.820312 40 24 40 M 24 4 C 12.960938 4 4 12.960938 4 24 C 4 35.039062 12.960938 44 24 44 C 35.039062 44 44 35.039062 44 24 C 44 12.960938 35.039062 4 24 4 M 22 34 L 26 34 L 26 22 L 22 22 Z M 22 34 "/>
</g>
</svg>
