<?xml version="1.0" standalone="no"?>
<!DOCTYPE svg PUBLIC "-//W3C//DTD SVG 20010904//EN"
 "http://www.w3.org/TR/2001/REC-SVG-20010904/DTD/svg10.dtd">
<svg version="1.0" xmlns="http://www.w3.org/2000/svg"
 width="700.000000pt" height="700.000000pt" viewBox="0 0 700.000000 700.000000"
 preserveAspectRatio="xMidYMid meet">
<metadata>
Created by potrace 1.11, written by Peter Selinger 2001-2013
</metadata>
<g transform="translate(0.000000,700.000000) scale(0.100000,-0.100000)"
fill="#000000" stroke="none">
<path d="M678 6913 c-2 -10 -3 -1413 -3 -3118 l1 -3100 322 -3 c177 -1 323 -6
323 -10 2 -12 7 -276 9 -459 l2 -173 2489 0 c1369 0 2489 3 2490 8 3 21 13
6184 10 6207 -1 6 -106 10 -296 9 l-295 0 0 328 0 328 -2524 0 c-2395 0 -2524
-1 -2528 -17z m4942 -3103 l-2 -3010 -2416 2 -2417 3 -1 3000 c0 1650 1 3003
4 3008 2 4 1090 7 2418 7 l2415 0 -1 -3010z"/>
<path d="M1359 5483 c-3 -21 -5 -219 -2 -228 2 -7 613 -9 1811 -8 994 0 1819
2 1833 2 l27 1 -1 120 -1 120 -1833 0 c-1008 0 -1833 -3 -1834 -7z"/>
<path d="M1369 4948 c-1 -2 -2 -56 -3 -120 l-1 -118 1835 0 1836 0 0 120 0
120 -1833 0 c-1008 0 -1833 -1 -1834 -2z"/>
<path d="M1369 4443 c-5 -35 -2 -226 4 -230 5 -3 2370 -6 3508 -3 l155 0 0
120 0 120 -1833 0 c-1008 0 -1834 -3 -1834 -7z"/>
<path d="M1367 3955 c-2 -5 -3 -59 -2 -120 l1 -110 1037 -1 c739 0 1037 2
1038 10 6 64 2 219 -6 224 -17 12 -2064 9 -2068 -3z"/>
<path d="M1371 3460 c-4 -3 -6 -57 -6 -120 l1 -115 1037 -1 c948 -1 1037 0
1038 15 6 75 2 214 -6 219 -12 8 -2053 9 -2064 2z"/>
<path d="M1372 2960 c-6 -4 -7 -110 -3 -212 l1 -26 1037 1 1037 2 1 113 c0 63
-2 117 -5 121 -6 7 -2058 9 -2068 1z"/>
</g>
</svg>
